P2
# This is a comment
3 2
255
  0  64 128
128 192 255
