P2
# version comprésser!
16 16
255
10 10 10 10 10 10 10 10 98 98 98 98 98 98 98 98 
10 10 10 10 10 10 10 10 98 98 98 98 98 98 98 98 
10 10 10 10 10 10 10 10 98 98 98 98 98 98 98 98 
10 10 10 10 10 10 10 10 98 98 98 98 98 98 98 98 
10 10 10 10 10 10 10 10 98 98 98 98 98 98 98 98 
10 10 10 10 10 10 10 10 98 98 98 98 98 98 98 98 
10 10 10 10 10 10 10 10 98 98 98 98 98 98 98 98 
10 10 10 10 10 10 10 10 98 98 98 98 98 98 98 98 
254 254 254 254 254 254 254 254 200 200 200 200 200 200 200 200 
254 254 254 254 254 254 254 254 200 200 200 200 200 200 200 200 
254 254 254 254 254 254 254 254 200 200 200 200 200 200 200 200 
254 254 254 254 254 254 254 254 200 200 200 200 200 200 200 200 
254 254 254 254 254 254 254 254 200 200 200 200 200 200 200 200 
254 254 254 254 254 254 254 254 200 200 200 200 200 200 200 200 
254 254 254 254 254 254 254 254 200 200 200 200 200 200 200 200 
254 254 254 254 254 254 254 254 200 200 200 200 200 200 200 200 
