P2
# version comprésser!
16 16
255
46 46 46 46 46 46 46 46 98 98 98 98 98 98 98 98 
46 46 46 46 46 46 46 46 98 98 98 98 98 98 98 98 
46 46 46 46 46 46 46 46 98 98 98 98 98 98 98 98 
46 46 46 46 46 46 46 46 98 98 98 98 98 98 98 98 
46 46 46 46 46 46 46 46 98 98 98 98 98 98 98 98 
46 46 46 46 46 46 46 46 98 98 98 98 98 98 98 98 
46 46 46 46 46 46 46 46 98 98 98 98 98 98 98 98 
46 46 46 46 46 46 46 46 98 98 98 98 98 98 98 98 
254 254 254 254 254 254 254 254 200 200 200 200 200 200 200 200 
254 254 254 254 254 254 254 254 200 200 200 200 200 200 200 200 
254 254 254 254 254 254 254 254 200 200 200 200 200 200 200 200 
254 254 254 254 254 254 254 254 200 200 200 200 200 200 200 200 
254 254 254 254 254 254 254 254 200 200 200 200 200 200 200 200 
254 254 254 254 254 254 254 254 200 200 200 200 200 200 200 200 
254 254 254 254 254 254 254 254 200 200 200 200 200 200 200 200 
254 254 254 254 254 254 254 254 200 200 200 200 200 200 200 200 
