P2
# c'est un commentaire juste pour faire genre
4 4
255
0 1 4 5 
2 3 6 7 
8 9 12 13 
10 11 14 15 
