P2
# version comprésser!
16 16
255
46 46 210 10 210 10 210 10 98 98 98 98 98 98 98 98 
46 46 10 210 10 210 10 210 98 98 98 98 98 98 98 98 
210 10 210 10 210 10 210 10 98 98 98 98 98 98 98 98 
10 210 10 210 10 210 10 210 98 98 98 98 98 98 98 98 
210 10 210 10 210 10 210 10 98 98 98 98 98 98 98 98 
10 210 10 210 10 210 10 210 98 98 98 98 98 98 98 98 
210 10 210 10 210 10 210 10 98 98 98 98 98 98 98 98 
10 210 10 210 10 210 10 210 98 98 98 98 98 98 98 98 
254 254 254 254 254 254 254 254 200 200 200 200 200 200 200 200 
254 254 254 254 254 254 254 254 200 200 200 200 200 200 200 200 
254 254 254 254 254 254 254 254 200 200 200 200 200 200 200 200 
254 254 254 254 254 254 254 254 200 200 200 200 200 200 200 200 
254 254 254 254 254 254 254 254 200 200 200 200 200 200 200 200 
254 254 254 254 254 254 254 254 200 200 200 200 200 200 200 200 
254 254 254 254 254 254 254 254 200 200 200 200 200 200 200 200 
254 254 254 254 254 254 254 254 200 200 200 200 200 200 200 200 
